<svg width="34" height="34" viewBox="0 0 34 34" fill="none" xmlns="http://www.w3.org/2000/svg">
<circle cx="17" cy="17" r="17" fill="#A58F77"/>
<path d="M23 6.24648V6H20.0797V6.24648C20.4853 6.24648 20.5339 6.37938 20.5339 6.77789V20.1188H14.4823V6.77789C14.4823 6.37938 14.5634 6.24648 14.9366 6.24648V6H12V6.24648C12.4056 6.24648 12.4705 6.37938 12.4705 6.77789V28.2031C12.4705 28.6016 12.4056 28.7535 12 28.7535V29H14.9366V28.7535C14.5634 28.7535 14.4823 28.6016 14.4823 28.2031V22.453H20.5339V28.2031C20.5339 28.6016 20.469 28.7535 20.0797 28.7535V29H23V28.7535C22.6431 28.7535 22.562 28.6016 22.562 28.2031V6.77789C22.562 6.37938 22.6431 6.24648 23 6.24648Z" fill="white"/>
</svg>
