<svg width="41" height="42" viewBox="0 0 41 42" fill="none" xmlns="http://www.w3.org/2000/svg">
<path d="M40.5 20.25V21.0903C40.5 31.4303 32.75 39.9599 22.74 41.1899C21.92 41.2899 21.09 41.3403 20.25 41.3403C19.17 41.3403 18.12 41.2601 17.09 41.1001C7.41001 39.5801 0 31.2003 0 21.0903V20.25C0 9.07 9.07 0 20.25 0C25.84 0 30.91 2.27018 34.57 5.93018C38.24 9.60018 40.5 14.66 40.5 20.25Z" fill="white"/>
<path d="M22.7399 20.0803V23.2805H27.6099L26.8299 28.6101H22.7499V41.1902C21.9299 41.2902 21.0999 41.3406 20.2599 41.3406C19.1799 41.3406 18.1299 41.2603 17.0999 41.1003V28.6101H12.4399L12.5299 23.2805H17.0999V18.6702C17.0999 15.2502 20.1699 11.2201 27.6199 12.9001V17.3801L25.3599 17.4202C23.7999 17.4502 22.7499 18.5203 22.7499 20.0803H22.7399Z" fill="#7E6952"/>
</svg>
