<svg width="41" height="42" viewBox="0 0 41 42" fill="none" xmlns="http://www.w3.org/2000/svg">
<path d="M40.5 20.25C40.5 9.06623 31.4338 0 20.25 0C9.06623 0 0 9.06623 0 20.25V21.0903C0 32.2741 9.06623 41.3403 20.25 41.3403C31.4338 41.3403 40.5 32.2741 40.5 21.0903V20.25Z" fill="white"/>
<path d="M20.2498 16.9902C22.2798 16.9902 23.9298 18.6399 23.9298 20.6699C23.9298 22.6999 22.2798 24.3501 20.2498 24.3501C18.2198 24.3501 16.5698 22.6999 16.5698 20.6699C16.5698 18.6399 18.2198 16.9902 20.2498 16.9902ZM20.2498 14.9502C17.0998 14.9502 14.5298 17.5099 14.5298 20.6699C14.5298 23.8299 17.0898 26.3901 20.2498 26.3901C23.4098 26.3901 25.9698 23.8299 25.9698 20.6699C25.9698 17.5099 23.4098 14.9502 20.2498 14.9502Z" fill="#7E6952"/>
<path d="M25.1199 11.6499C27.4099 11.6499 29.27 13.5103 29.27 15.8003V25.5503C29.27 27.8403 27.4099 29.7002 25.1199 29.7002H15.3699C13.0799 29.7002 11.2199 27.8403 11.2199 25.5503V15.8003C11.2199 13.5103 13.0799 11.6499 15.3699 11.6499H25.1199ZM25.1199 9.60986H15.3699C11.9599 9.60986 9.18994 12.38 9.18994 15.79V25.54C9.18994 28.95 11.9599 31.7202 15.3699 31.7202H25.1199C28.5299 31.7202 31.3 28.95 31.3 25.54V15.79C31.3 12.38 28.5299 9.60986 25.1199 9.60986Z" fill="#7E6952"/>
<path d="M26.2602 16.0103C27.0057 16.0103 27.6102 15.4057 27.6102 14.6602C27.6102 13.9146 27.0057 13.3101 26.2602 13.3101C25.5146 13.3101 24.9102 13.9146 24.9102 14.6602C24.9102 15.4057 25.5146 16.0103 26.2602 16.0103Z" fill="#7E6952"/>
</svg>
