<svg width="41" height="42" viewBox="0 0 41 42" fill="none" xmlns="http://www.w3.org/2000/svg">
<path d="M40.5 20.25C40.5 9.06623 31.4338 0 20.25 0C9.06623 0 0 9.06623 0 20.25V21.0903C0 32.2741 9.06623 41.3403 20.25 41.3403C31.4338 41.3403 40.5 32.2741 40.5 21.0903V20.25Z" fill="white"/>
<path d="M32.0999 17.0999C32.0499 16.7799 31.9999 16.4497 31.9299 16.1297C31.8899 15.9097 31.8499 15.7001 31.7999 15.4901C31.7699 15.3501 31.7299 15.2102 31.6799 15.0702C31.6499 15.0002 31.6199 14.9297 31.5999 14.8597C31.3899 14.3697 31.0699 13.95 30.6699 13.62C30.1099 13.15 29.3899 12.8298 28.5899 12.7298C23.1099 12.0098 17.6999 12.1798 11.9299 12.7298C11.7599 12.7498 11.5899 12.7802 11.4299 12.8202C11.2499 12.8602 11.0799 12.9201 10.9199 12.9901C10.9099 12.9901 10.8899 13.0001 10.8799 13.0101C10.4899 13.1701 10.1399 13.3697 9.83987 13.6297C9.45987 13.9497 9.14988 14.3399 8.93988 14.8099C8.91988 14.8499 8.89988 14.8898 8.87988 14.9398C8.86988 14.9798 8.84987 15.0101 8.83987 15.0501L8.80988 15.1297L8.7099 15.4998C8.6599 15.7098 8.6199 15.93 8.5799 16.14C8.5199 16.46 8.45988 16.7797 8.40988 17.1097C8.25988 18.0897 8.1799 19.0802 8.1499 20.0702C8.1499 20.1602 8.1499 20.2599 8.1499 20.3499C8.1499 20.4699 8.1499 20.58 8.1499 20.7V20.7201C8.1499 20.8401 8.16989 21.1501 8.41989 24.2801C8.46989 24.6001 8.51987 24.9298 8.58987 25.2498C8.62987 25.4698 8.66988 25.68 8.71988 25.89C8.74988 26.03 8.78987 26.1699 8.83987 26.3099C8.86987 26.3799 8.89989 26.4499 8.91989 26.5199C9.12989 27.0099 9.44988 27.4301 9.84988 27.7601C10.4099 28.2301 11.1299 28.5498 11.9299 28.6498C17.4099 29.3698 22.8199 29.1998 28.5899 28.6498C28.7699 28.6298 28.9499 28.6001 29.1199 28.5501C29.1399 28.5501 29.1599 28.5501 29.1799 28.5301C29.3599 28.4801 29.5299 28.4202 29.6999 28.3402C29.7099 28.3402 29.7199 28.3302 29.7299 28.3202C30.0799 28.1702 30.3999 27.9701 30.6799 27.7401C31.0599 27.4201 31.3699 27.0299 31.5799 26.5599C31.5999 26.5199 31.6199 26.48 31.6399 26.43C31.6499 26.39 31.6699 26.3602 31.6799 26.3202C31.6799 26.2902 31.6999 26.2701 31.7099 26.2401L31.8099 25.87C31.8599 25.66 31.8999 25.4398 31.9399 25.2298C31.9999 24.9098 32.0599 24.5901 32.1099 24.2601C32.2599 23.2801 32.3399 22.2901 32.3699 21.3001C32.3699 21.2101 32.3699 21.1099 32.3699 21.0199C32.3699 20.8999 32.3699 20.7698 32.3699 20.6498C32.3699 20.5298 32.3499 20.2202 32.0999 17.0902V17.0999Z" fill="#7E6952"/>
<path d="M23.8998 20.65C23.8998 20.65 23.9198 20.6903 23.8998 20.7003L20.8598 22.4503L17.8198 24.2003C17.8198 24.2003 17.7798 24.2003 17.7798 24.1803V17.1602C17.7798 17.1602 17.7998 17.1302 17.8198 17.1402L20.8598 18.8902L23.8998 20.6402V20.65Z" fill="white"/>
</svg>
