<svg width="41" height="42" viewBox="0 0 41 42" fill="none" xmlns="http://www.w3.org/2000/svg">
<path d="M40.5 20.25C40.5 9.06623 31.4338 0 20.25 0C9.06623 0 0 9.06623 0 20.25V21.0903C0 32.2741 9.06623 41.3403 20.25 41.3403C31.4338 41.3403 40.5 32.2741 40.5 21.0903V20.25Z" fill="white"/>
<path d="M12.5501 15.5103C13.9032 15.5103 15.0001 14.4132 15.0001 13.0601C15.0001 11.707 13.9032 10.6099 12.5501 10.6099C11.197 10.6099 10.1001 11.707 10.1001 13.0601C10.1001 14.4132 11.197 15.5103 12.5501 15.5103Z" fill="#7E6952"/>
<path d="M14.6103 17.23H10.4902V30.73H14.6103V17.23Z" fill="#7E6952"/>
<path d="M21.2499 19.1V17.2299H17.1699V30.7299H21.2499V25.39C21.2499 23.08 21.5599 21.97 22.1199 21.37C22.1299 21.36 22.1399 21.35 22.1499 21.33C22.9999 20.41 24.5899 20.2698 25.3799 21.1698C25.8199 21.6698 26.0399 22.3799 26.0299 23.2499V30.7201H30.3899V23.6097C30.3899 18.4897 28.4799 17.0898 26.0099 16.8998C25.9399 16.8998 25.8699 16.8898 25.7899 16.8798C24.3899 16.7698 22.4299 17.0502 21.2399 19.0902L21.2499 19.1Z" fill="#7E6952"/>
</svg>
